HIERARCHY
ROOT SpineBase
{
  OFFSET 0.000000 0.000000 0.000000
  CHANNELS 6 Xposition Yposition Zposition Zrotation Xrotation Yrotation
  JOINT SpineMid
  {
    OFFSET 0.000000 31.520741 0.000000
    CHANNELS 3 Zrotation Xrotation Yrotation
    JOINT SpineShoulder
    {
      OFFSET 0.529520 23.482999 -0.944937
      CHANNELS 3 Zrotation Xrotation Yrotation
      JOINT Neck
      {
        OFFSET 0.207349 7.699062 -0.584968
        CHANNELS 3 Zrotation Xrotation Yrotation
        JOINT Head
        {
          OFFSET 5.574605 11.577901 1.770968
          CHANNELS 3 Zrotation Xrotation Yrotation
          End Site
          {
            OFFSET 0 0 0
          }
        }
      }
      JOINT ShoulderLeft
      {
        OFFSET -5.541498 -4.429309 -15.695781
        CHANNELS 3 Zrotation Xrotation Yrotation
        JOINT ElbowLeft
        {
          OFFSET -2.894717 -26.543121 -7.910100
          CHANNELS 3 Zrotation Xrotation Yrotation
          JOINT WristLeft
          {
            OFFSET 5.338536 -24.772289 -4.043102
            CHANNELS 3 Zrotation Xrotation Yrotation
            JOINT HandLeft
            {
              OFFSET 0.387414 -7.146602 1.355011
              CHANNELS 3 Zrotation Xrotation Yrotation
              JOINT HandTipLeft
              {
                OFFSET 1.083681 -7.685062 1.687735
                CHANNELS 3 Zrotation Xrotation Yrotation
                End Site
                {
                  OFFSET 0 0 0
                }
              }
              JOINT ThumbLeft
              {
                OFFSET -2.610475 1.136509 5.068874
                CHANNELS 3 Zrotation Xrotation Yrotation
                End Site
                {
                  OFFSET 0 0 0
                }
              }
            }
          }
        }
      }
      JOINT ShoulderRight
      {
        OFFSET 6.258405 -8.043270 14.104597
        CHANNELS 3 Zrotation Xrotation Yrotation
        JOINT ElbowRight
        {
          OFFSET 15.399554 -17.118490 -17.142883
          CHANNELS 3 Zrotation Xrotation Yrotation
          JOINT WristRight
          {
            OFFSET -16.065855 -10.567153 4.358411
            CHANNELS 3 Zrotation Xrotation Yrotation
            JOINT HandRight
            {
              OFFSET 2.485537 -7.587969 -2.682801
              CHANNELS 3 Zrotation Xrotation Yrotation
              JOINT HandTipRight
              {
                OFFSET 0.177907 -5.131712 -0.792870
                CHANNELS 3 Zrotation Xrotation Yrotation
                End Site
                {
                  OFFSET 0 0 0
                }
              }
              JOINT ThumbRight
              {
                OFFSET -0.211053 0.090177 -5.729744
                CHANNELS 3 Zrotation Xrotation Yrotation
                End Site
                {
                  OFFSET 0 0 0
                }
              }
            }
          }
        }
      }
    }
  }
  JOINT HipLeft
  {
    OFFSET -2.126153 1.000343 -9.200501
    CHANNELS 3 Zrotation Xrotation Yrotation
    JOINT KneeLeft
    {
      OFFSET -7.295423 -35.781601 -2.914120
      CHANNELS 3 Zrotation Xrotation Yrotation
      JOINT AnkleLeft
      {
        OFFSET -9.677708 -33.982729 3.521294
        CHANNELS 3 Zrotation Xrotation Yrotation
        JOINT FootLeft
        {
          OFFSET 10.191328 -5.240923 -6.884772
          CHANNELS 3 Zrotation Xrotation Yrotation
          End Site
          {
            OFFSET 0 0 0
          }
        }
      }
    }
  }
  JOINT HipRight
  {
    OFFSET 4.030366 -0.204212 1.714596
    CHANNELS 3 Zrotation Xrotation Yrotation
    JOINT KneeRight
    {
      OFFSET -10.022613 -33.089827 -1.327797
      CHANNELS 3 Zrotation Xrotation Yrotation
      JOINT AnkleRight
      {
        OFFSET -14.783330 -35.337520 -2.306275
        CHANNELS 3 Zrotation Xrotation Yrotation
        JOINT FootRight
        {
          OFFSET 2.720764 -7.123240 -1.157695
          CHANNELS 3 Zrotation Xrotation Yrotation
          End Site
          {
            OFFSET 0 0 0
          }
        }
      }
    }
  }
}
MOTION
Frames: 5
Frame Time: 0.033333
-90.920031 76.094074 354.074308 -0.000000 0.000000 -60.575390 -0.000000 0.000000 60.575390 -0.000000 0.000000 0.000000 -0.000000 0.000000 0.000000 0.000000 0.000000 0.000000 -0.000000 0.000000 0.000000 -0.000000 0.000000 0.000000 -0.000000 0.000000 0.000000 -0.000000 0.000000 0.000000 0.000000 0.000000 0.000000 0.000000 0.000000 0.000000 -0.000000 0.000000 0.000000 -0.000000 0.000000 0.000000 -0.000000 0.000000 0.000000 -0.000000 0.000000 0.000000 0.000000 0.000000 0.000000 0.000000 0.000000 0.000000 -0.000000 0.000000 60.575390 -0.000000 0.000000 0.000000 -0.000000 0.000000 0.000000 0.000000 0.000000 0.000000 -0.000000 0.000000 60.575390 -0.000000 0.000000 0.000000 -0.000000 0.000000 0.000000 0.000000 0.000000 0.000000
-91.118144 75.956385 353.890791 -0.409393 0.118425 -60.626590 0.304008 0.298675 60.626221 -0.000000 0.000000 0.000000 -0.000000 0.000000 0.000000 0.000000 0.000000 0.000000 -0.000000 0.000000 0.000000 0.474836 -0.805371 -0.247788 -1.477004 -3.896900 -0.217154 2.355652 7.334745 0.935608 0.000000 0.000000 0.000000 0.000000 0.000000 0.000000 -0.000000 0.000000 0.000000 -0.000000 0.000000 0.000000 -0.727252 -1.861739 -0.367450 1.269700 -4.641232 0.049246 0.000000 0.000000 0.000000 0.000000 0.000000 0.000000 0.304008 0.298675 60.626221 -0.000000 0.000000 0.000000 -0.000000 0.000000 0.000000 0.000000 0.000000 0.000000 4.284681 -0.230982 61.699437 -1.096306 5.661778 -1.874579 4.045713 -12.055745 -3.240919 0.000000 0.000000 0.000000
-91.282874 75.831213 353.689280 -0.780721 0.215908 -60.771560 0.569648 0.575892 60.770168 -0.000000 0.000000 0.000000 -0.645204 -0.446494 0.310502 0.000000 0.000000 0.000000 -0.693516 -0.691357 0.278207 1.461602 -0.941369 -0.761755 -2.515309 -6.518644 -0.357965 3.962993 12.666831 1.381318 0.000000 0.000000 0.000000 0.000000 0.000000 0.000000 -0.000000 0.000000 0.000000 -0.000000 0.000000 0.000000 -1.520898 -3.513321 -0.670256 2.504775 -8.416415 0.057509 0.000000 0.000000 0.000000 0.000000 0.000000 0.000000 -0.193133 -0.275742 60.812007 1.115490 -0.250579 -0.037402 -0.199069 0.385406 1.010552 0.000000 0.000000 0.000000 7.847028 -0.272363 62.708310 -1.981190 9.951012 -3.228468 8.587017 -23.477680 -5.869523 0.000000 0.000000 0.000000
-91.414221 75.718559 353.469776 -1.113848 0.292487 -61.012815 0.795659 0.832566 61.009877 -0.000000 0.000000 0.000000 -1.088618 -0.321977 0.317175 0.000000 0.000000 0.000000 -0.935822 -0.976631 0.378047 1.800318 -1.479542 -1.060960 -3.110151 -7.970183 -0.406791 4.902711 16.120125 1.572444 0.000000 0.000000 0.000000 0.000000 0.000000 0.000000 -0.000000 0.000000 0.000000 -0.000000 0.000000 0.000000 -2.389149 -4.992854 -0.916220 3.682551 -11.137809 0.022782 0.000000 0.000000 0.000000 0.000000 0.000000 0.000000 -0.068719 -0.435556 61.108207 1.527906 -0.144055 -0.093414 -0.268744 0.498561 1.322112 0.000000 0.000000 0.000000 10.568485 -0.134419 63.565136 -2.694520 12.859723 -4.086063 13.163153 -32.078469 -7.287554 0.000000 0.000000 0.000000
-91.512184 75.618423 353.232278 -1.408731 0.348244 -61.351025 0.981071 1.069291 61.346152 -0.828003 -0.022362 -0.062458 -0.784416 0.053006 0.293109 0.000000 0.000000 0.000000 -0.278511 -1.198052 0.514959 1.858050 -2.038436 -1.297650 -3.265848 -8.349529 -0.365427 5.203891 17.812744 1.644019 0.000000 0.000000 0.000000 0.000000 0.000000 0.000000 0.827978 0.023262 0.062129 -0.000000 0.000000 0.000000 -3.343623 -6.331587 -1.110898 4.802422 -12.763206 -0.063748 0.000000 0.000000 0.000000 0.000000 0.000000 0.000000 0.215283 -0.601951 61.524444 1.834159 0.123676 -0.177148 -0.317628 0.559903 1.505949 0.000000 0.000000 0.000000 12.378344 0.162260 64.252266 -3.262117 14.374857 -4.457914 17.245367 -36.307338 -7.548125 0.000000 0.000000 0.000000
